<?xml version="1.0" encoding="UTF-8" standalone="no"?>
<!-- Created with Inkscape (http://www.inkscape.org/) -->
<svg xmlns:inkscape="http://www.inkscape.org/namespaces/inkscape" xmlns:sodipodi="http://sodipodi.sourceforge.net/DTD/sodipodi-0.dtd" xmlns="http://www.w3.org/2000/svg" xmlns:svg="http://www.w3.org/2000/svg" version="1.1" id="svg2" xml:space="preserve" width="372.16132" height="70.144669" viewBox="0 0 372.16132 70.144668" sodipodi:docname="b388df53afc157a1fd720b7ff4104f01.ai">
  <metadata>
    <meta name="Producer" content="Online-Convert"/>
  </metadata>
  <defs id="defs6">
    <clipPath clipPathUnits="userSpaceOnUse" id="clipPath16">
      <path d="M 0,52.609 H 279.121 V 0 H 0 Z" id="path14"/>
    </clipPath>
    <clipPath clipPathUnits="userSpaceOnUse" id="clipPath54">
      <path d="m 137.884,52.6095 h 1.385 V 18.6834 h -1.385 z" id="path52"/>
    </clipPath>
  </defs>
  <sodipodi:namedview id="namedview4" pagecolor="#ffffff" bordercolor="#666666" borderopacity="1.0" inkscape:pageshadow="2" inkscape:pageopacity="0.0" inkscape:pagecheckerboard="0"/>
  <g id="g8" inkscape:groupmode="layer" inkscape:label="b388df53afc157a1fd720b7ff4104f01" transform="matrix(1.3333333,0,0,-1.3333333,0,70.145332)">
    <g id="g10">
      <g id="g12" clip-path="url(#clipPath16)">
        <g id="g18" transform="translate(202.0636,35.949)">
          <path d="M 0,0 C 3.272,0 5.137,1.942 5.137,4.862 V 6.024 H 0.229 V 4.22 H 2.691 C 2.645,2.966 1.896,1.911 0.061,1.911 c -2.14,0 -3.043,1.514 -3.043,3.624 v 0.122 c 0,2.233 1.117,3.655 3.013,3.655 1.315,0 2.155,-0.581 2.37,-1.866 H 4.862 C 4.602,10.153 2.431,11.269 0,11.269 c -3.226,0 -5.566,-2.294 -5.566,-5.581 V 5.566 C -5.566,2.324 -3.578,0 0,0 m 5.957,0.168 h 2.217 v 4.006 c 0,1.529 0.948,2.064 2.584,2.049 V 8.287 C 9.459,8.272 8.679,7.706 8.174,6.636 V 8.165 H 5.957 Z M 15.163,0 c 2.187,0 3.563,0.963 3.823,2.691 H 16.891 C 16.754,2.018 16.249,1.575 15.224,1.575 c -1.207,0 -1.926,0.764 -1.987,2.095 h 5.764 v 0.611 c 0,2.859 -1.835,4.067 -3.899,4.067 -2.324,0 -4.113,-1.635 -4.113,-4.159 V 4.067 C 10.989,1.514 12.748,0 15.163,0 m -1.896,5.031 c 0.168,1.131 0.841,1.789 1.835,1.789 1.055,0 1.667,-0.582 1.743,-1.789 z M 22.372,0 c 1.254,0 1.958,0.489 2.416,1.131 V 0.168 h 2.156 v 5.214 c 0,2.171 -1.391,2.966 -3.348,2.966 -1.957,0 -3.456,-0.84 -3.593,-2.736 h 2.094 c 0.092,0.688 0.49,1.131 1.361,1.131 1.009,0 1.3,-0.52 1.3,-1.468 V 4.954 H 23.856 C 21.409,4.954 19.697,4.251 19.697,2.385 19.697,0.703 20.92,0 22.372,0 m 0.658,1.544 c -0.81,0 -1.162,0.383 -1.162,0.964 0,0.856 0.749,1.131 2.034,1.131 h 0.856 V 2.966 c 0,-0.887 -0.749,-1.422 -1.728,-1.422 m 8.046,-1.529 c 0.596,0 1.04,0.107 1.345,0.214 V 1.942 C 32.161,1.835 31.917,1.789 31.58,1.789 c -0.565,0 -0.887,0.306 -0.887,0.948 V 6.59 h 1.682 V 8.165 H 30.693 V 9.893 H 28.492 V 8.165 H 27.467 V 6.59 h 1.025 V 2.538 c 0,-1.666 0.902,-2.523 2.584,-2.523 m 5.682,0.153 h 3.563 c 3.838,0 5.749,2.187 5.749,5.459 v 0.122 c 0,3.272 -1.896,5.352 -5.734,5.352 h -3.578 z m 2.477,1.927 v 7.079 h 0.979 c 2.309,0 3.272,-1.208 3.272,-3.455 V 5.596 c 0,-2.263 -1.04,-3.501 -3.242,-3.501 z M 49.224,0 c 1.254,0 1.957,0.489 2.416,1.131 V 0.168 h 2.156 v 5.214 c 0,2.171 -1.391,2.966 -3.349,2.966 -1.957,0 -3.455,-0.84 -3.593,-2.736 h 2.095 c 0.092,0.688 0.489,1.131 1.361,1.131 1.009,0 1.3,-0.52 1.3,-1.468 V 4.954 H 50.707 C 48.261,4.954 46.548,4.251 46.548,2.385 46.548,0.703 47.772,0 49.224,0 m 0.658,1.544 c -0.811,0 -1.162,0.383 -1.162,0.964 0,0.856 0.749,1.131 2.033,1.131 H 51.61 V 2.966 c 0,-0.887 -0.75,-1.422 -1.728,-1.422 m 5.734,-4.098 h 2.14 L 62.083,8.165 H 59.958 L 58.169,3.364 56.227,8.165 h -2.385 l 3.18,-7.186 z" style="fill:#ffffff;fill-opacity:1;fill-rule:nonzero;stroke:none" id="path20"/>
        </g>
        <path d="m 197.31,23.714 h 1.131 v 9.292 h -1.131 z m 3.067,0 h 1.079 v 4.159 c 0,1.221 0.91,1.819 1.794,1.819 0.935,0 1.442,-0.494 1.442,-1.689 v -4.289 h 1.079 v 4.159 c 0,1.221 0.91,1.819 1.793,1.819 0.936,0 1.443,-0.494 1.443,-1.689 v -4.289 h 1.079 v 4.211 c 0,1.975 -1.066,2.703 -2.288,2.703 -0.845,0 -1.858,-0.39 -2.326,-1.274 -0.351,0.91 -1.118,1.274 -1.988,1.274 -0.975,0 -1.716,-0.52 -2.028,-1.157 v 1.04 h -1.079 z m 11.437,-2.365 h 1.079 v 3.482 c 0.389,-0.675 1.182,-1.234 2.3,-1.234 1.871,0 3.093,1.429 3.093,3.509 v 0.104 c 0,2.118 -1.313,3.418 -3.093,3.418 -0.988,0 -1.911,-0.598 -2.3,-1.261 v 1.144 h -1.079 z m 3.275,3.145 c -1.326,0 -2.235,0.818 -2.235,2.56 v 0.104 c 0,1.741 0.961,2.573 2.222,2.573 1.144,0 2.092,-0.858 2.092,-2.573 v -0.104 c 0,-1.651 -0.727,-2.56 -2.079,-2.56 m 4.484,-0.78 h 1.078 v 3.73 c 0,1.676 0.871,2.105 2.236,2.17 v 1.014 c -1.222,-0.039 -1.807,-0.572 -2.236,-1.339 v 1.222 h -1.078 z m 7.122,-0.117 c 1.936,0 3.353,1.416 3.353,3.47 v 0.104 c 0,2.04 -1.417,3.457 -3.34,3.457 -1.924,0 -3.341,-1.43 -3.341,-3.47 v -0.104 c 0,-1.989 1.391,-3.457 3.328,-3.457 m 0.013,0.897 c -1.378,0 -2.223,1.013 -2.223,2.56 v 0.104 c 0,1.559 0.858,2.573 2.223,2.573 1.351,0 2.222,-1.014 2.222,-2.586 v -0.091 c 0,-1.534 -0.858,-2.56 -2.222,-2.56 m 6.134,-0.78 h 1.377 l 2.444,6.797 h -1.118 l -1.989,-5.706 -2.014,5.706 h -1.17 z m 7.433,-0.117 c 1.534,0 2.665,0.715 2.899,2.079 h -1.079 c -0.143,-0.793 -0.754,-1.182 -1.807,-1.182 -1.39,0 -2.131,0.857 -2.183,2.404 h 5.12 v 0.351 c 0,2.43 -1.481,3.379 -3.054,3.379 -1.871,0 -3.184,-1.43 -3.184,-3.483 v -0.104 c 0,-2.093 1.365,-3.444 3.288,-3.444 m -2.131,4.172 c 0.182,1.208 0.923,1.962 2.027,1.962 1.118,0 1.846,-0.559 1.95,-1.962 z m 6.342,-4.055 h 1.079 v 4.159 c 0,1.221 0.91,1.819 1.793,1.819 0.936,0 1.443,-0.494 1.443,-1.689 v -4.289 h 1.079 v 4.159 c 0,1.221 0.909,1.819 1.793,1.819 0.936,0 1.443,-0.494 1.443,-1.689 v -4.289 h 1.078 v 4.211 c 0,1.975 -1.065,2.703 -2.287,2.703 -0.845,0 -1.858,-0.39 -2.326,-1.274 -0.351,0.91 -1.118,1.274 -1.989,1.274 -0.975,0 -1.715,-0.52 -2.027,-1.157 v 1.04 h -1.079 z m 14.218,-0.117 c 1.533,0 2.664,0.715 2.898,2.079 h -1.079 c -0.143,-0.793 -0.753,-1.182 -1.806,-1.182 -1.391,0 -2.132,0.857 -2.184,2.404 h 5.121 v 0.351 c 0,2.43 -1.481,3.379 -3.054,3.379 -1.872,0 -3.184,-1.43 -3.184,-3.483 v -0.104 c 0,-2.093 1.364,-3.444 3.288,-3.444 m -2.132,4.172 c 0.182,1.208 0.923,1.962 2.028,1.962 1.118,0 1.845,-0.559 1.949,-1.962 z m 6.343,-4.055 h 1.078 v 4.12 c 0,1.221 0.897,1.858 1.898,1.858 1.091,0 1.598,-0.533 1.598,-1.728 v -4.25 h 1.079 v 4.172 c 0,1.975 -0.988,2.742 -2.391,2.742 -1.118,0 -1.872,-0.559 -2.184,-1.196 v 1.079 h -1.078 z m 9.448,-0.091 c 0.442,0 0.702,0.065 0.922,0.143 v 0.91 c -0.233,-0.091 -0.493,-0.143 -0.831,-0.143 -0.546,0 -0.845,0.324 -0.845,0.987 v 4.081 h 1.586 v 0.91 h -1.586 v 1.546 h -1.079 v -1.546 h -0.974 v -0.91 h 0.974 v -4.185 c 0,-1.065 0.598,-1.793 1.833,-1.793 m 4.262,-0.026 c 1.651,0 2.496,0.832 2.496,2.066 0,1.443 -0.988,1.755 -2.392,2.015 -1.247,0.221 -1.585,0.468 -1.585,1.078 0,0.585 0.507,0.975 1.287,0.975 0.857,0 1.273,-0.325 1.429,-1.065 h 1.04 c -0.182,1.468 -1.235,1.962 -2.456,1.962 -1.066,0 -2.301,-0.65 -2.301,-1.911 0,-1.182 0.598,-1.676 2.365,-2.001 1.053,-0.195 1.586,-0.429 1.586,-1.144 0,-0.728 -0.455,-1.078 -1.482,-1.078 -1.091,0 -1.52,0.506 -1.598,1.312 h -1.053 c 0.065,-1.39 1.04,-2.209 2.664,-2.209" style="fill:#ffffff;fill-opacity:1;fill-rule:nonzero;stroke:none" id="path22"/>
        <g id="g24" transform="translate(178.933,43.7121)">
          <path d="M 0,0 V 6.232 H -2.859 V 0 l 1.429,1.371 z" style="fill:#ffffff;fill-opacity:1;fill-rule:nonzero;stroke:none" id="path26"/>
        </g>
        <g id="g28" transform="translate(191.9674,37.8534)">
          <path d="m 0,0 h -6.923 l 2.979,-2.859 H 0 Z" style="fill:#ffffff;fill-opacity:1;fill-rule:nonzero;stroke:none" id="path30"/>
        </g>
        <g id="g32" transform="translate(186.1337,23.7146)">
          <path d="m 0,0 h -2.859 v 8.499 l -5.769,5.55 -5.773,-5.55 v -5.64 h 5.813 v 2.768 h -1.553 v 2.872 h 4.414 V 0 H -17.26 V 9.712 L -8.628,17.991 0,9.715 Z" style="fill:#ffffff;fill-opacity:1;fill-rule:nonzero;stroke:none" id="path34"/>
        </g>
        <g id="g36" transform="translate(163.0418,37.8534)">
          <path d="M 0,0 H 6.923 L 3.944,-2.859 H 0 Z" style="fill:#ffffff;fill-opacity:1;fill-rule:nonzero;stroke:none" id="path38"/>
        </g>
        <g id="g40" transform="translate(188.003,44.6333)">
          <path d="M 0,0 -2.071,1.987 -7.087,-2.824 -5.016,-4.81 Z" style="fill:#ffffff;fill-opacity:1;fill-rule:nonzero;stroke:none" id="path42"/>
        </g>
        <g id="g44" transform="translate(167.0034,44.6339)">
          <path d="M 0,0 2.071,1.987 7.087,-2.824 5.016,-4.81 Z" style="fill:#ffffff;fill-opacity:1;fill-rule:nonzero;stroke:none" id="path46"/>
        </g>
        <g id="g48">
          <g id="g50"/>
          <g id="g60">
            <g clip-path="url(#clipPath54)" id="g58">
              <path d="m 139.269,18.683 h -1.385 v 33.926 h 1.385 z" style="fill:#ffffff;fill-opacity:1;fill-rule:nonzero;stroke:none" id="path56"/>
            </g>
          </g>
        </g>
        <g id="g62" transform="translate(55.3093,4.2378)">
          <path d="m 0,0 v 0.063 c 0,1.679 1.125,2.891 2.661,2.891 1.181,0 2.178,-0.626 2.297,-1.853 H 4.277 C 4.135,1.964 3.635,2.408 2.669,2.408 1.497,2.408 0.713,1.497 0.713,0.071 V 0.008 c 0,-1.442 0.729,-2.313 1.948,-2.313 0.927,0 1.569,0.467 1.711,1.386 H 5.014 C 4.816,-2.226 3.913,-2.867 2.646,-2.867 1.006,-2.867 0,-1.742 0,0" style="fill:#ffffff;fill-opacity:1;fill-rule:nonzero;stroke:none" id="path64"/>
        </g>
        <g id="g66" transform="translate(61.2778,7.5644)">
          <path d="m 0,0 h 0.657 v -2.638 c 0.19,0.389 0.65,0.729 1.331,0.729 0.855,0 1.457,-0.467 1.457,-1.671 V -6.123 H 2.788 v 2.59 c 0,0.729 -0.309,1.054 -0.974,1.054 -0.61,0 -1.157,-0.388 -1.157,-1.133 V -6.123 H 0 Z" style="fill:#ffffff;fill-opacity:1;fill-rule:nonzero;stroke:none" id="path68"/>
        </g>
        <g id="g70" transform="translate(68.2752,2.8911)">
          <path d="m 0,0 v 0.515 h -0.57 c -0.832,0 -1.442,-0.206 -1.442,-0.816 0,-0.428 0.207,-0.697 0.784,-0.697 C -0.531,-0.998 0,-0.641 0,0 m -2.669,-0.301 c 0,0.958 1.014,1.283 2.075,1.283 H 0 v 0.301 c 0,0.658 -0.253,0.935 -0.887,0.935 -0.57,0 -0.887,-0.238 -0.951,-0.745 h -0.657 c 0.087,0.943 0.84,1.291 1.64,1.291 0.792,0 1.513,-0.325 1.513,-1.481 V -1.449 H 0 v 0.522 c -0.309,-0.388 -0.681,-0.594 -1.291,-0.594 -0.768,0 -1.378,0.373 -1.378,1.22" style="fill:#ffffff;fill-opacity:1;fill-rule:nonzero;stroke:none" id="path72"/>
        </g>
        <g id="g74" transform="translate(70.1132,5.584)">
          <path d="m 0,0 h 0.657 v -0.634 c 0.19,0.389 0.642,0.705 1.236,0.705 0.53,0 0.998,-0.221 1.212,-0.776 0.285,0.539 0.902,0.776 1.417,0.776 0.745,0 1.394,-0.443 1.394,-1.647 V -4.142 H 5.259 v 2.613 c 0,0.729 -0.309,1.03 -0.879,1.03 -0.538,0 -1.093,-0.364 -1.093,-1.109 V -4.142 H 2.63 v 2.613 c 0,0.729 -0.309,1.03 -0.879,1.03 -0.539,0 -1.094,-0.364 -1.094,-1.109 V -4.142 H 0 Z" style="fill:#ffffff;fill-opacity:1;fill-rule:nonzero;stroke:none" id="path76"/>
        </g>
        <g id="g78" transform="translate(80.4774,3.4775)">
          <path d="M 0,0 V 0.063 C 0,1.109 -0.578,1.631 -1.275,1.631 -2.044,1.631 -2.63,1.124 -2.63,0.063 V 0 c 0,-1.062 0.555,-1.56 1.363,-1.56 C -0.444,-1.56 0,-1.006 0,0 m -3.263,2.107 h 0.657 V 1.41 c 0.238,0.404 0.8,0.768 1.402,0.768 1.085,0 1.885,-0.792 1.885,-2.083 V 0.032 c 0,-1.268 -0.744,-2.139 -1.885,-2.139 -0.681,0 -1.164,0.34 -1.402,0.753 v -2.123 h -0.657 z" style="fill:#ffffff;fill-opacity:1;fill-rule:nonzero;stroke:none" id="path80"/>
        </g>
        <path d="m 82.104,5.584 h 0.658 V 1.442 h -0.658 z m -0.118,1.299 c 0,0.238 0.198,0.436 0.435,0.436 0.238,0 0.436,-0.198 0.436,-0.436 0,-0.237 -0.198,-0.436 -0.436,-0.436 -0.237,0 -0.435,0.199 -0.435,0.436" style="fill:#ffffff;fill-opacity:1;fill-rule:nonzero;stroke:none" id="path82"/>
        <g id="g84" transform="translate(87.078,3.4775)">
          <path d="m 0,0 v 0.055 c 0,0.959 -0.531,1.576 -1.354,1.576 -0.832,0 -1.355,-0.617 -1.355,-1.568 V 0 c 0,-0.943 0.515,-1.56 1.355,-1.56 C -0.523,-1.56 0,-0.935 0,0 m -3.39,0 v 0.063 c 0,1.244 0.863,2.115 2.036,2.115 1.171,0 2.035,-0.863 2.035,-2.107 V 0.008 c 0,-1.252 -0.864,-2.115 -2.043,-2.115 -1.181,0 -2.028,0.895 -2.028,2.107" style="fill:#ffffff;fill-opacity:1;fill-rule:nonzero;stroke:none" id="path86"/>
        </g>
        <g id="g88" transform="translate(88.7056,5.584)">
          <path d="m 0,0 h 0.657 v -0.657 c 0.19,0.388 0.65,0.728 1.331,0.728 0.855,0 1.457,-0.467 1.457,-1.671 V -4.142 H 2.788 v 2.59 c 0,0.728 -0.309,1.053 -0.974,1.053 -0.61,0 -1.157,-0.388 -1.157,-1.132 V -4.142 H 0 Z" style="fill:#ffffff;fill-opacity:1;fill-rule:nonzero;stroke:none" id="path90"/>
        </g>
        <path d="m 95.156,5.584 h 0.657 V 1.442 h -0.657 z m -0.119,1.299 c 0,0.238 0.198,0.436 0.436,0.436 0.237,0 0.436,-0.198 0.436,-0.436 0,-0.237 -0.199,-0.436 -0.436,-0.436 -0.238,0 -0.436,0.199 -0.436,0.436" style="fill:#ffffff;fill-opacity:1;fill-rule:nonzero;stroke:none" id="path92"/>
        <g id="g94" transform="translate(96.7366,2.7171)">
          <path d="m 0,0 h 0.642 c 0.047,-0.491 0.308,-0.8 0.974,-0.8 0.625,0 0.902,0.214 0.902,0.657 0,0.436 -0.324,0.579 -0.966,0.697 -1.077,0.198 -1.441,0.5 -1.441,1.22 0,0.768 0.752,1.164 1.402,1.164 0.744,0 1.386,-0.3 1.497,-1.196 H 2.376 C 2.281,2.194 2.028,2.392 1.505,2.392 1.029,2.392 0.721,2.154 0.721,1.798 0.721,1.426 0.926,1.275 1.687,1.141 2.543,0.982 3.144,0.792 3.144,-0.087 3.144,-0.84 2.63,-1.347 1.623,-1.347 0.634,-1.347 0.039,-0.847 0,0" style="fill:#ffffff;fill-opacity:1;fill-rule:nonzero;stroke:none" id="path96"/>
        </g>
        <g id="g98" transform="translate(104.9067,2.8911)">
          <path d="m 0,0 v 0.515 h -0.57 c -0.832,0 -1.442,-0.206 -1.442,-0.816 0,-0.428 0.206,-0.697 0.784,-0.697 C -0.531,-0.998 0,-0.641 0,0 m -2.669,-0.301 c 0,0.958 1.013,1.283 2.075,1.283 H 0 v 0.301 c 0,0.658 -0.253,0.935 -0.887,0.935 -0.57,0 -0.887,-0.238 -0.951,-0.745 h -0.657 c 0.087,0.943 0.839,1.291 1.639,1.291 0.793,0 1.513,-0.325 1.513,-1.481 V -1.449 H 0 v 0.522 c -0.309,-0.388 -0.681,-0.594 -1.291,-0.594 -0.769,0 -1.378,0.373 -1.378,1.22" style="fill:#ffffff;fill-opacity:1;fill-rule:nonzero;stroke:none" id="path100"/>
        </g>
        <g id="g102" transform="translate(108.2043,4.2378)">
          <path d="m 0,0 v 0.063 c 0,1.703 1.212,2.891 2.883,2.891 1.259,0 2.384,-0.578 2.518,-1.98 H 4.127 C 4.016,1.639 3.58,1.941 2.899,1.941 1.916,1.941 1.339,1.204 1.339,0.047 v -0.063 c 0,-1.093 0.467,-1.877 1.576,-1.877 0.95,0 1.338,0.546 1.362,1.196 H 3.002 V 0.237 H 5.544 V -0.365 C 5.544,-1.877 4.578,-2.883 2.883,-2.883 1.029,-2.883 0,-1.679 0,0" style="fill:#ffffff;fill-opacity:1;fill-rule:nonzero;stroke:none" id="path104"/>
        </g>
        <g id="g106" transform="translate(114.5675,5.584)">
          <path d="M 0,0 H 1.149 V -0.792 C 1.41,-0.237 1.814,0.055 2.487,0.063 V -1.006 C 1.639,-0.998 1.149,-1.275 1.149,-2.067 V -4.142 H 0 Z" style="fill:#ffffff;fill-opacity:1;fill-rule:nonzero;stroke:none" id="path108"/>
        </g>
        <g id="g110" transform="translate(120.4608,3.9608)">
          <path d="m 0,0 c -0.04,0.626 -0.357,0.926 -0.903,0.926 -0.515,0 -0.863,-0.34 -0.95,-0.926 z m -3.033,-0.499 v 0.063 c 0,1.307 0.926,2.154 2.13,2.154 1.069,0 2.02,-0.625 2.02,-2.106 v -0.317 h -2.986 c 0.031,-0.689 0.404,-1.085 1.03,-1.085 0.53,0 0.792,0.23 0.863,0.578 h 1.085 c -0.135,-0.895 -0.847,-1.394 -1.98,-1.394 -1.252,0 -2.162,0.784 -2.162,2.107" style="fill:#ffffff;fill-opacity:1;fill-rule:nonzero;stroke:none" id="path112"/>
        </g>
        <g id="g114" transform="translate(124.6611,2.8911)">
          <path d="m 0,0 v 0.349 h -0.444 c -0.665,0 -1.053,-0.143 -1.053,-0.586 0,-0.302 0.182,-0.5 0.602,-0.5 C -0.388,-0.737 0,-0.459 0,0 m -2.622,-0.301 c 0,0.966 0.888,1.331 2.155,1.331 H 0 v 0.166 c 0,0.491 -0.15,0.761 -0.673,0.761 -0.452,0 -0.658,-0.23 -0.705,-0.587 h -1.086 c 0.072,0.983 0.848,1.418 1.862,1.418 1.014,0 1.734,-0.412 1.734,-1.536 V -1.449 H 0.016 v 0.499 c -0.238,-0.333 -0.602,-0.586 -1.252,-0.586 -0.752,0 -1.386,0.364 -1.386,1.235" style="fill:#ffffff;fill-opacity:1;fill-rule:nonzero;stroke:none" id="path116"/>
        </g>
        <g id="g118" transform="translate(126.8262,2.6693)">
          <path d="M 0,0 V 2.099 H -0.531 V 2.915 H 0 V 3.81 H 1.141 V 2.915 H 2.012 V 2.099 H 1.141 V 0.103 c 0,-0.332 0.166,-0.491 0.459,-0.491 0.174,0 0.301,0.024 0.436,0.079 V -1.196 C 1.877,-1.251 1.647,-1.306 1.339,-1.306 0.468,-1.306 0,-0.863 0,0" style="fill:#ffffff;fill-opacity:1;fill-rule:nonzero;stroke:none" id="path120"/>
        </g>
        <g id="g122" transform="translate(132.9063,2.44)">
          <path d="m 0,0 c 1.141,0 1.679,0.641 1.679,1.813 v 0.064 c 0,1.164 -0.499,1.79 -1.695,1.79 H -0.523 V 0 Z m -1.806,4.665 h 1.853 c 1.989,0 2.97,-1.077 2.97,-2.772 V 1.829 c 0,-1.695 -0.989,-2.827 -2.978,-2.827 h -1.845 z" style="fill:#ffffff;fill-opacity:1;fill-rule:nonzero;stroke:none" id="path124"/>
        </g>
        <g id="g126" transform="translate(139.0521,2.8911)">
          <path d="m 0,0 v 0.349 h -0.444 c -0.665,0 -1.053,-0.143 -1.053,-0.586 0,-0.302 0.182,-0.5 0.602,-0.5 C -0.388,-0.737 0,-0.459 0,0 m -2.622,-0.301 c 0,0.966 0.888,1.331 2.155,1.331 H 0 v 0.166 c 0,0.491 -0.15,0.761 -0.673,0.761 -0.452,0 -0.658,-0.23 -0.705,-0.587 h -1.086 c 0.072,0.983 0.848,1.418 1.862,1.418 1.014,0 1.734,-0.412 1.734,-1.536 V -1.449 H 0.016 v 0.499 c -0.238,-0.333 -0.602,-0.586 -1.252,-0.586 -0.752,0 -1.386,0.364 -1.386,1.235" style="fill:#ffffff;fill-opacity:1;fill-rule:nonzero;stroke:none" id="path128"/>
        </g>
        <g id="g130" transform="translate(142.1569,1.8617)">
          <path d="m 0,0 -1.647,3.722 h 1.235 L 0.594,1.236 1.521,3.722 H 2.622 L 0.38,-1.829 h -1.109 z" style="fill:#ffffff;fill-opacity:1;fill-rule:nonzero;stroke:none" id="path132"/>
        </g>
        <path d="m 146.888,7.105 h 1.291 V 1.442 h -1.291 z" style="fill:#ffffff;fill-opacity:1;fill-rule:nonzero;stroke:none" id="path134"/>
        <g id="g136" transform="translate(149.2439,5.584)">
          <path d="m 0,0 h 1.149 v -0.634 c 0.205,0.389 0.649,0.729 1.267,0.729 0.546,0 0.958,-0.23 1.156,-0.721 0.333,0.499 0.871,0.721 1.394,0.721 0.769,0 1.363,-0.483 1.363,-1.584 V -4.142 H 5.188 v 2.526 c 0,0.531 -0.238,0.769 -0.649,0.769 -0.444,0 -0.801,-0.285 -0.801,-0.848 v -2.447 h -1.14 v 2.526 c 0,0.531 -0.245,0.769 -0.65,0.769 -0.443,0 -0.799,-0.285 -0.799,-0.848 V -4.142 H 0 Z" style="fill:#ffffff;fill-opacity:1;fill-rule:nonzero;stroke:none" id="path138"/>
        </g>
        <g id="g140" transform="translate(159.6108,3.485)">
          <path d="m 0,0 v 0.063 c 0,0.84 -0.411,1.252 -0.989,1.252 -0.603,0 -1.014,-0.42 -1.014,-1.252 V 0 c 0,-0.831 0.395,-1.235 1.021,-1.235 C -0.348,-1.235 0,-0.808 0,0 m -3.112,2.099 h 1.148 V 1.45 c 0.23,0.396 0.713,0.744 1.323,0.744 1.014,0 1.806,-0.752 1.806,-2.123 V 0.008 c 0,-1.37 -0.776,-2.138 -1.806,-2.138 -0.641,0 -1.108,0.317 -1.323,0.72 v -2.043 h -1.148 z" style="fill:#ffffff;fill-opacity:1;fill-rule:nonzero;stroke:none" id="path142"/>
        </g>
        <g id="g144" transform="translate(161.5042,5.584)">
          <path d="M 0,0 H 1.148 V -0.792 C 1.41,-0.237 1.814,0.055 2.487,0.063 V -1.006 C 1.64,-0.998 1.148,-1.275 1.148,-2.067 V -4.142 H 0 Z" style="fill:#ffffff;fill-opacity:1;fill-rule:nonzero;stroke:none" id="path146"/>
        </g>
        <g id="g148" transform="translate(167.5613,3.485)">
          <path d="m 0,0 v 0.056 c 0,0.792 -0.372,1.267 -1.014,1.267 -0.633,0 -1.014,-0.46 -1.014,-1.252 V 0.008 c 0,-0.792 0.366,-1.267 1.014,-1.267 C -0.372,-1.259 0,-0.784 0,0 m -3.199,-0.016 v 0.064 c 0,1.299 0.943,2.146 2.185,2.146 1.244,0 2.179,-0.831 2.179,-2.123 V 0.008 c 0,-1.306 -0.943,-2.138 -2.186,-2.138 -1.235,0 -2.178,0.824 -2.178,2.114" style="fill:#ffffff;fill-opacity:1;fill-rule:nonzero;stroke:none" id="path150"/>
        </g>
        <g id="g152" transform="translate(168.8694,5.584)">
          <path d="M 0,0 H 1.228 L 2.218,-2.962 3.2,0 H 4.309 L 2.804,-4.142 H 1.513 Z" style="fill:#ffffff;fill-opacity:1;fill-rule:nonzero;stroke:none" id="path154"/>
        </g>
        <g id="g156" transform="translate(176.3548,3.9608)">
          <path d="M 0,0 C -0.04,0.626 -0.357,0.926 -0.903,0.926 -1.418,0.926 -1.767,0.586 -1.854,0 Z m -3.034,-0.499 v 0.063 c 0,1.307 0.927,2.154 2.131,2.154 1.068,0 2.02,-0.625 2.02,-2.106 V -0.705 H -1.87 c 0.032,-0.689 0.404,-1.085 1.03,-1.085 0.531,0 0.792,0.23 0.864,0.578 h 1.084 c -0.134,-0.895 -0.847,-1.394 -1.98,-1.394 -1.251,0 -2.162,0.784 -2.162,2.107" style="fill:#ffffff;fill-opacity:1;fill-rule:nonzero;stroke:none" id="path158"/>
        </g>
        <g id="g160" transform="translate(178.1988,5.584)">
          <path d="m 0,0 h 1.148 v -0.634 c 0.206,0.389 0.65,0.729 1.267,0.729 0.547,0 0.959,-0.23 1.157,-0.721 0.333,0.499 0.871,0.721 1.394,0.721 0.768,0 1.363,-0.483 1.363,-1.584 V -4.142 H 5.188 v 2.526 c 0,0.531 -0.238,0.769 -0.649,0.769 -0.444,0 -0.801,-0.285 -0.801,-0.848 v -2.447 h -1.14 v 2.526 c 0,0.531 -0.246,0.769 -0.65,0.769 -0.443,0 -0.8,-0.285 -0.8,-0.848 V -4.142 H 0 Z" style="fill:#ffffff;fill-opacity:1;fill-rule:nonzero;stroke:none" id="path162"/>
        </g>
        <g id="g164" transform="translate(188.251,3.9608)">
          <path d="M 0,0 C -0.04,0.626 -0.357,0.926 -0.903,0.926 -1.419,0.926 -1.767,0.586 -1.854,0 Z m -3.034,-0.499 v 0.063 c 0,1.307 0.927,2.154 2.131,2.154 1.069,0 2.019,-0.625 2.019,-2.106 V -0.705 H -1.87 c 0.032,-0.689 0.404,-1.085 1.03,-1.085 0.531,0 0.792,0.23 0.864,0.578 h 1.084 c -0.134,-0.895 -0.847,-1.394 -1.98,-1.394 -1.251,0 -2.162,0.784 -2.162,2.107" style="fill:#ffffff;fill-opacity:1;fill-rule:nonzero;stroke:none" id="path166"/>
        </g>
        <g id="g168" transform="translate(190.095,5.584)">
          <path d="m 0,0 h 1.148 v -0.657 c 0.206,0.412 0.658,0.752 1.347,0.752 0.816,0 1.394,-0.491 1.394,-1.6 V -4.142 H 2.741 v 2.471 c 0,0.562 -0.223,0.832 -0.729,0.832 -0.491,0 -0.864,-0.302 -0.864,-0.911 V -4.142 H 0 Z" style="fill:#ffffff;fill-opacity:1;fill-rule:nonzero;stroke:none" id="path170"/>
        </g>
        <g id="g172" transform="translate(195.0159,2.6693)">
          <path d="M 0,0 V 2.099 H -0.531 V 2.915 H 0 V 3.81 H 1.141 V 2.915 H 2.013 V 2.099 H 1.141 V 0.103 c 0,-0.332 0.166,-0.491 0.459,-0.491 0.174,0 0.301,0.024 0.436,0.079 V -1.196 C 1.877,-1.251 1.647,-1.306 1.339,-1.306 0.467,-1.306 0,-0.863 0,0" style="fill:#ffffff;fill-opacity:1;fill-rule:nonzero;stroke:none" id="path174"/>
        </g>
        <g id="g176" transform="translate(197.4753,2.7407)">
          <path d="m 0,0 h 1.069 c 0.048,-0.372 0.229,-0.586 0.729,-0.586 0.443,0 0.65,0.166 0.65,0.451 0,0.285 -0.246,0.405 -0.84,0.492 -1.101,0.166 -1.529,0.483 -1.529,1.29 0,0.864 0.792,1.291 1.639,1.291 0.92,0 1.608,-0.332 1.711,-1.282 H 2.376 C 2.312,1.996 2.122,2.154 1.727,2.154 1.354,2.154 1.141,1.98 1.141,1.727 1.141,1.465 1.338,1.362 1.941,1.275 2.978,1.124 3.548,0.863 3.548,-0.024 3.548,-0.919 2.899,-1.386 1.805,-1.386 0.688,-1.386 0.04,-0.895 0,0" style="fill:#ffffff;fill-opacity:1;fill-rule:nonzero;stroke:none" id="path178"/>
        </g>
        <g id="g180" transform="translate(206.8724,3.4775)">
          <path d="m 0,0 v 0.063 c 0,1.046 -0.578,1.568 -1.275,1.568 -0.769,0 -1.354,-0.507 -1.354,-1.568 V 0 c 0,-1.062 0.554,-1.56 1.362,-1.56 C -0.444,-1.56 0,-1.006 0,0 m -2.605,-1.354 v -0.682 h -0.658 v 6.123 h 0.658 V 1.41 c 0.237,0.404 0.799,0.768 1.401,0.768 1.085,0 1.885,-0.792 1.885,-2.083 V 0.032 c 0,-1.268 -0.744,-2.139 -1.885,-2.139 -0.673,0 -1.164,0.34 -1.401,0.753" style="fill:#ffffff;fill-opacity:1;fill-rule:nonzero;stroke:none" id="path182"/>
        </g>
        <g id="g184" transform="translate(208.5048,5.584)">
          <path d="m 0,0 h 0.657 v -0.744 c 0.261,0.467 0.618,0.792 1.362,0.815 V -0.546 C 1.188,-0.586 0.657,-0.847 0.657,-1.869 V -4.142 H 0 Z" style="fill:#ffffff;fill-opacity:1;fill-rule:nonzero;stroke:none" id="path186"/>
        </g>
        <g id="g188" transform="translate(213.6705,2.8911)">
          <path d="m 0,0 v 0.515 h -0.57 c -0.833,0 -1.443,-0.206 -1.443,-0.816 0,-0.428 0.207,-0.697 0.785,-0.697 C -0.531,-0.998 0,-0.641 0,0 m -2.67,-0.301 c 0,0.958 1.014,1.283 2.076,1.283 H 0 v 0.301 c 0,0.658 -0.253,0.935 -0.887,0.935 -0.57,0 -0.887,-0.238 -0.951,-0.745 h -0.657 c 0.087,0.943 0.839,1.291 1.639,1.291 0.793,0 1.513,-0.325 1.513,-1.481 V -1.449 H 0 v 0.522 c -0.309,-0.388 -0.681,-0.594 -1.291,-0.594 -0.769,0 -1.379,0.373 -1.379,1.22" style="fill:#ffffff;fill-opacity:1;fill-rule:nonzero;stroke:none" id="path190"/>
        </g>
        <g id="g192" transform="translate(215.507,5.584)">
          <path d="m 0,0 h 0.658 v -0.657 c 0.19,0.388 0.649,0.728 1.331,0.728 0.855,0 1.457,-0.467 1.457,-1.671 V -4.142 H 2.788 v 2.59 c 0,0.728 -0.308,1.053 -0.974,1.053 -0.609,0 -1.156,-0.388 -1.156,-1.132 V -4.142 H 0 Z" style="fill:#ffffff;fill-opacity:1;fill-rule:nonzero;stroke:none" id="path194"/>
        </g>
        <g id="g196" transform="translate(223.1761,3.485)">
          <path d="M 0,0 V 0.063 C 0,1.125 -0.507,1.624 -1.316,1.624 -2.139,1.624 -2.63,1.046 -2.63,0.04 v -0.064 c 0,-1.045 0.563,-1.544 1.26,-1.544 C -0.602,-1.568 0,-1.061 0,0 m -3.311,-0.055 v 0.063 c 0,1.267 0.791,2.162 1.932,2.162 0.69,0 1.117,-0.332 1.354,-0.736 v 2.645 h 0.659 v -6.122 h -0.659 v 0.712 c -0.237,-0.403 -0.815,-0.784 -1.417,-0.784 -1.085,0 -1.869,0.769 -1.869,2.06" style="fill:#ffffff;fill-opacity:1;fill-rule:nonzero;stroke:none" id="path198"/>
        </g>
        <g id="g200" transform="translate(86.5842,31.6555)">
          <path d="m 0,0 c -5.197,0 -9.407,4.049 -9.407,9.043 0,4.995 4.21,9.043 9.407,9.043 5.195,0 9.408,-4.048 9.408,-9.043 C 9.408,4.049 5.195,0 0,0 m -0.059,19.543 c -6.001,0 -10.864,-4.676 -10.864,-10.444 0,-5.768 4.863,-10.443 10.864,-10.443 6,0 10.865,4.675 10.865,10.443 0,5.768 -4.865,10.444 -10.865,10.444" style="fill:#ffffff;fill-opacity:1;fill-rule:nonzero;stroke:none" id="path202"/>
        </g>
        <g id="g204" transform="translate(81.7906,37.1367)">
          <path d="M 0,0 2.594,2.868 V 5.855 H 4.237 V 4.684 L 4.549,5.03 7.639,8.4 11.33,4.281 13.347,2.208 c 0.08,0.458 0.124,0.927 0.124,1.407 0,4.636 -3.91,8.393 -8.732,8.393 -4.824,0 -8.734,-3.757 -8.734,-8.393 0,-3.778 2.596,-6.972 6.166,-8.026 V 0 Z" style="fill:#ffffff;fill-opacity:1;fill-rule:nonzero;stroke:none" id="path206"/>
        </g>
        <path d="M 110.711,20.094 H 0 v 1.532 h 110.711 z" style="fill:#ffffff;fill-opacity:1;fill-rule:nonzero;stroke:none" id="path208"/>
        <g id="g210" transform="translate(12.7576,43.2367)">
          <path d="m 0,0 h -4.477 l 0.365,1.928 c 0.066,0.344 0.213,1.126 -0.889,1.126 -1.194,0 -1.36,-0.759 -1.452,-1.126 l -1.558,-8.242 c -0.06,-0.321 -0.199,-1.055 0.949,-1.055 1.194,0 1.332,0.734 1.414,1.17 l 0.369,1.951 h 4.545 c -0.066,-0.344 -0.107,-0.688 -0.168,-1.01 -0.481,-2.548 -1.204,-5.28 -6.759,-5.28 -2.686,0 -3.63,0.711 -4.025,1.056 -1.264,1.079 -0.978,2.595 -0.726,3.926 l 1.274,6.75 c 0.291,1.538 0.678,3.581 3.389,4.569 1.065,0.413 2.143,0.527 3.222,0.527 1.905,0 3.205,-0.413 4.075,-1.148 C 0.633,4.202 0.586,3.1 0.295,1.561 Z" style="fill:#ffffff;fill-opacity:1;fill-rule:nonzero;stroke:none" id="path212"/>
        </g>
        <g id="g214" transform="translate(15.4377,49.2283)">
          <path d="M 0,0 H 4.591 L 3.385,-6.382 H 5.52 L 6.726,0 h 4.545 L 8.204,-16.233 H 3.659 l 1.223,6.476 H 2.748 l -1.224,-6.476 h -4.591 z" style="fill:#ffffff;fill-opacity:1;fill-rule:nonzero;stroke:none" id="path216"/>
        </g>
        <g id="g218" transform="translate(33.5628,46.0144)">
          <path d="m 0,0 -2.214,-6.497 h 1.951 z m 3.335,3.191 0.61,-16.21 h -4.522 l 0.184,3.652 H -3.17 l -1.24,-3.652 h -4.545 l 6.827,16.21 z" style="fill:#ffffff;fill-opacity:1;fill-rule:nonzero;stroke:none" id="path220"/>
        </g>
        <g id="g222" transform="translate(57.1317,49.2054)">
          <path d="m 0,0 -3.063,-16.21 h -3.81 l 2.099,11.113 -4.601,-11.113 h -2.916 l -0.465,10.907 -2.06,-10.907 h -3.811 L -15.564,0 h 5.762 L -9.758,-10.698 -5.716,0 Z" style="fill:#ffffff;fill-opacity:1;fill-rule:nonzero;stroke:none" id="path224"/>
        </g>
        <g id="g226" transform="translate(62.866,46.1059)">
          <path d="m 0,0 -0.785,-4.155 h 1.148 c 1.034,0 1.234,0.458 1.394,1.308 l 0.318,1.676 C 2.27,-0.138 1.836,0 1.148,0 Z m -3.954,3.122 h 6.931 c 1.08,0 3.031,0 3.538,-1.814 C 6.716,0.551 6.614,-0.344 6.176,-2.663 5.478,-6.359 3.977,-7.254 0.397,-7.254 h -1.768 l -1.105,-5.856 h -4.546 z" style="fill:#ffffff;fill-opacity:1;fill-rule:nonzero;stroke:none" id="path228"/>
        </g>
        <g id="g230" transform="translate(71.5341,49.2054)">
          <path d="M 0,0 H 4.59 L 1.528,-16.21 h -4.591 z" style="fill:#ffffff;fill-opacity:1;fill-rule:nonzero;stroke:none" id="path232"/>
        </g>
        <g id="g234" transform="translate(111.2904,49.2054)">
          <path d="m 0,0 -3.062,-16.21 h -4.293 l -1.094,7.693 c -0.176,1.262 -0.203,1.354 -0.227,2.203 l -1.8,-9.896 h -3.811 L -11.225,0 h 4.201 l 1.018,-7.002 c 0.21,-1.561 0.226,-1.721 0.338,-3.077 L -3.811,0 Z" style="fill:#ffffff;fill-opacity:1;fill-rule:nonzero;stroke:none" id="path236"/>
        </g>
        <g id="g238" transform="translate(108.8019,31.6687)">
          <path d="m 0,0 h 0.325 c 0.185,0 0.277,0.07 0.277,0.211 0,0.135 -0.085,0.202 -0.253,0.202 L 0,0.413 Z M 0.926,-0.833 H 0.595 l -0.24,0.599 H 0 v -0.599 h -0.315 v 1.48 h 0.686 c 0.187,0 0.328,-0.042 0.42,-0.123 0.091,-0.083 0.137,-0.188 0.137,-0.316 0,-0.184 -0.091,-0.315 -0.274,-0.391 z m 0.407,0.741 C 1.333,0.203 1.23,0.456 1.025,0.668 0.82,0.88 0.574,0.986 0.288,0.986 -0.005,0.986 -0.254,0.881 -0.46,0.669 -0.666,0.458 -0.768,0.204 -0.768,-0.092 c 0,-0.299 0.103,-0.553 0.309,-0.763 0.206,-0.211 0.454,-0.317 0.743,-0.317 0.286,0 0.533,0.106 0.739,0.317 0.207,0.21 0.31,0.464 0.31,0.763 m 0.229,-0.002 c 0,-0.352 -0.125,-0.654 -0.376,-0.905 -0.25,-0.252 -0.55,-0.379 -0.9,-0.379 -0.354,0 -0.655,0.127 -0.907,0.379 -0.251,0.251 -0.377,0.554 -0.377,0.907 0,0.353 0.126,0.655 0.376,0.906 0.252,0.252 0.554,0.378 0.911,0.378 0.35,0 0.65,-0.126 0.899,-0.378 0.25,-0.251 0.374,-0.554 0.374,-0.908" style="fill:#ffffff;fill-opacity:1;fill-rule:nonzero;stroke:none" id="path240"/>
        </g>
        <g id="g242" transform="translate(0.3185,28.4626)">
          <path d="M 0,0 H 1.205 L 1.767,-2.985 2.47,0 H 3.549 L 4.209,-2.991 4.865,0 H 5.858 L 4.708,-4.334 H 3.652 L 2.937,-1.336 2.207,-4.334 H 1.162 Z" style="fill:#ffffff;fill-opacity:1;fill-rule:nonzero;stroke:none" id="path244"/>
        </g>
        <path d="m 6.419,27.341 h 1.107 v -3.19 H 6.419 Z m 1.115,0.262 H 6.411 v 0.881 h 1.123 z" style="fill:#ffffff;fill-opacity:1;fill-rule:nonzero;stroke:none" id="path246"/>
        <g id="g248" transform="translate(8.3354,27.3412)">
          <path d="m 0,0 h 1.048 v -0.436 c 0.102,0.162 0.214,0.28 0.334,0.354 0.165,0.099 0.386,0.149 0.663,0.149 0.419,0 0.715,-0.122 0.888,-0.364 0.073,-0.101 0.118,-0.239 0.133,-0.414 0.008,-0.075 0.012,-0.205 0.012,-0.388 V -3.19 H 1.975 v 2.091 c 0,0.164 -0.019,0.278 -0.055,0.341 -0.052,0.089 -0.162,0.133 -0.33,0.133 -0.23,0 -0.377,-0.081 -0.44,-0.244 C 1.121,-0.94 1.107,-1.091 1.107,-1.32 V -3.19 H 0 Z" style="fill:#ffffff;fill-opacity:1;fill-rule:nonzero;stroke:none" id="path250"/>
        </g>
        <g id="g252" transform="translate(14.111,25.4399)">
          <path d="M 0,0 V 0.565 C 0,0.746 -0.008,0.872 -0.024,0.941 -0.066,1.11 -0.123,1.219 -0.196,1.27 -0.283,1.329 -0.378,1.358 -0.483,1.358 -0.698,1.358 -0.838,1.25 -0.903,1.033 -0.945,0.898 -0.966,0.708 -0.966,0.461 c 0,-0.383 0.016,-0.644 0.047,-0.783 0.058,-0.261 0.2,-0.392 0.428,-0.392 0.207,0 0.348,0.084 0.424,0.253 C -0.022,-0.36 0,-0.206 0,0 M 0,3.023 H 1.087 V -1.289 H 0.063 v 0.528 c -0.097,-0.198 -0.206,-0.338 -0.326,-0.42 -0.149,-0.101 -0.343,-0.152 -0.581,-0.152 -0.338,0 -0.605,0.095 -0.801,0.284 -0.309,0.301 -0.464,0.752 -0.464,1.352 0,0.672 0.19,1.147 0.57,1.425 0.199,0.145 0.448,0.217 0.746,0.217 0.178,0 0.335,-0.026 0.471,-0.078 C -0.207,1.822 -0.1,1.736 0,1.608 Z" style="fill:#ffffff;fill-opacity:1;fill-rule:nonzero;stroke:none" id="path254"/>
        </g>
        <g id="g256" transform="translate(17.2591,26.7855)">
          <path d="m 0,0 c -0.202,0 -0.334,-0.09 -0.396,-0.269 -0.055,-0.156 -0.083,-0.411 -0.083,-0.767 0,-0.398 0.033,-0.673 0.098,-0.824 0.066,-0.148 0.19,-0.222 0.373,-0.222 0.194,0 0.322,0.089 0.385,0.266 0.055,0.156 0.082,0.414 0.082,0.774 0,0.402 -0.032,0.676 -0.098,0.821 C 0.293,-0.074 0.173,0 0,0 m 0.016,0.622 c 0.468,0 0.832,-0.11 1.091,-0.332 0.33,-0.284 0.495,-0.727 0.495,-1.329 0,-1.108 -0.538,-1.662 -1.614,-1.662 -1.073,0 -1.61,0.551 -1.61,1.652 0,0.607 0.165,1.053 0.495,1.339 0.259,0.222 0.64,0.332 1.143,0.332" style="fill:#ffffff;fill-opacity:1;fill-rule:nonzero;stroke:none" id="path258"/>
        </g>
        <g id="g260" transform="translate(18.8534,27.3412)">
          <path d="M 0,0 H 1.076 L 1.543,-1.939 1.987,0 H 3.063 L 3.424,-1.939 3.958,0 H 4.826 L 3.832,-3.19 H 2.905 L 2.395,-1.02 1.896,-3.19 H 0.997 Z" style="fill:#ffffff;fill-opacity:1;fill-rule:nonzero;stroke:none" id="path262"/>
        </g>
        <g id="g264" transform="translate(26.6393,26.5737)">
          <path d="m 0,0 -0.789,-0.186 c -0.05,0.124 -0.105,0.216 -0.165,0.278 -0.102,0.103 -0.241,0.155 -0.416,0.155 -0.108,0 -0.191,-0.026 -0.252,-0.076 -0.062,-0.053 -0.094,-0.121 -0.094,-0.206 0,-0.116 0.058,-0.204 0.173,-0.265 0.084,-0.044 0.247,-0.1 0.491,-0.167 0.296,-0.085 0.489,-0.148 0.581,-0.19 0.393,-0.179 0.589,-0.441 0.589,-0.786 0,-0.266 -0.106,-0.493 -0.318,-0.683 -0.275,-0.242 -0.67,-0.363 -1.186,-0.363 -0.482,0 -0.856,0.101 -1.123,0.303 -0.186,0.142 -0.306,0.357 -0.361,0.648 l 0.879,0.113 c 0.081,-0.317 0.291,-0.476 0.629,-0.476 0.149,0 0.26,0.029 0.333,0.088 0.071,0.053 0.106,0.123 0.106,0.212 0,0.111 -0.056,0.199 -0.169,0.262 -0.078,0.042 -0.234,0.093 -0.467,0.155 -0.369,0.094 -0.645,0.206 -0.828,0.335 -0.244,0.172 -0.365,0.394 -0.365,0.666 0,0.299 0.124,0.54 0.373,0.723 0.267,0.196 0.612,0.294 1.036,0.294 0.382,0 0.699,-0.093 0.95,-0.278 C -0.215,0.428 -0.084,0.242 0,0" style="fill:#ffffff;fill-opacity:1;fill-rule:nonzero;stroke:none" id="path266"/>
        </g>
        <g id="g268" transform="translate(29.03,27.1474)">
          <path d="m 0,0 c 0.233,0 0.434,-0.082 0.605,-0.247 0.173,-0.165 0.26,-0.364 0.26,-0.598 0,-0.232 -0.086,-0.432 -0.257,-0.598 -0.171,-0.165 -0.377,-0.248 -0.62,-0.248 -0.239,0 -0.444,0.082 -0.615,0.245 -0.175,0.166 -0.262,0.367 -0.262,0.601 0,0.238 0.086,0.438 0.259,0.601 C -0.453,-0.081 -0.243,0 0,0" style="fill:#ffffff;fill-opacity:1;fill-rule:nonzero;stroke:none" id="path270"/>
        </g>
        <g id="g272" transform="translate(34.5864,27.5245)">
          <path d="m 0,0 -0.974,-0.3 c -0.146,0.356 -0.4,0.534 -0.762,0.534 -0.141,0 -0.259,-0.028 -0.353,-0.082 -0.139,-0.078 -0.208,-0.184 -0.208,-0.316 0,-0.135 0.08,-0.245 0.24,-0.329 0.112,-0.059 0.341,-0.141 0.687,-0.246 0.434,-0.133 0.751,-0.263 0.95,-0.392 0.351,-0.229 0.526,-0.54 0.526,-0.932 0,-0.427 -0.192,-0.771 -0.577,-1.032 -0.34,-0.23 -0.782,-0.345 -1.323,-0.345 -0.971,0 -1.592,0.395 -1.861,1.185 l 1.028,0.237 c 0.058,-0.175 0.129,-0.308 0.212,-0.398 0.155,-0.169 0.372,-0.253 0.652,-0.253 0.183,0 0.338,0.036 0.463,0.107 0.147,0.085 0.22,0.204 0.22,0.357 0,0.133 -0.064,0.241 -0.192,0.326 -0.108,0.071 -0.292,0.144 -0.554,0.218 -0.39,0.113 -0.649,0.199 -0.777,0.256 -0.558,0.252 -0.836,0.614 -0.836,1.086 0,0.404 0.164,0.729 0.494,0.976 0.309,0.232 0.717,0.347 1.225,0.347 0.484,0 0.881,-0.101 1.19,-0.303 0.196,-0.126 0.341,-0.286 0.436,-0.48 C -0.063,0.158 -0.031,0.084 0,0" style="fill:#ffffff;fill-opacity:1;fill-rule:nonzero;stroke:none" id="path274"/>
        </g>
        <g id="g276" transform="translate(35.1449,27.3412)">
          <path d="m 0,0 h 1.107 v -2.046 c 0,-0.192 0.013,-0.313 0.04,-0.364 0.055,-0.103 0.17,-0.155 0.345,-0.155 0.22,0 0.364,0.076 0.432,0.228 0.034,0.078 0.051,0.315 0.051,0.71 V 0 h 1.103 v -3.19 h -1.04 v 0.436 C 1.92,-2.912 1.815,-3.023 1.724,-3.086 1.561,-3.199 1.326,-3.256 1.017,-3.256 c -0.39,0 -0.668,0.095 -0.832,0.287 C 0.096,-2.863 0.039,-2.725 0.016,-2.552 0.005,-2.478 0,-2.319 0,-2.075 Z" style="fill:#ffffff;fill-opacity:1;fill-rule:nonzero;stroke:none" id="path278"/>
        </g>
        <g id="g280" transform="translate(38.9114,27.3412)">
          <path d="m 0,0 h 1.048 v -0.436 c 0.102,0.162 0.214,0.28 0.334,0.354 0.165,0.099 0.386,0.149 0.663,0.149 0.419,0 0.715,-0.122 0.888,-0.364 0.073,-0.101 0.118,-0.239 0.133,-0.414 0.008,-0.075 0.012,-0.205 0.012,-0.388 V -3.19 H 1.975 v 2.091 c 0,0.164 -0.019,0.278 -0.055,0.341 -0.052,0.089 -0.162,0.133 -0.33,0.133 -0.23,0 -0.377,-0.081 -0.44,-0.244 C 1.121,-0.94 1.107,-1.091 1.107,-1.32 V -3.19 H 0 Z" style="fill:#ffffff;fill-opacity:1;fill-rule:nonzero;stroke:none" id="path282"/>
        </g>
        <g id="g284" transform="translate(42.6268,27.3412)">
          <path d="m 0,0 h 0.974 v -0.77 c 0.099,0.273 0.213,0.469 0.341,0.587 0.163,0.152 0.361,0.227 0.597,0.227 0.05,0 0.113,-0.006 0.189,-0.019 V -0.84 c -0.082,0.006 -0.143,0.009 -0.185,0.009 -0.217,0 -0.39,-0.052 -0.518,-0.158 C 1.272,-1.092 1.187,-1.233 1.143,-1.412 1.119,-1.502 1.107,-1.637 1.107,-1.816 V -3.19 H 0 Z" style="fill:#ffffff;fill-opacity:1;fill-rule:nonzero;stroke:none" id="path286"/>
        </g>
        <g id="g288" transform="translate(46.5552,26.7855)">
          <path d="m 0,0 c -0.202,0 -0.334,-0.09 -0.396,-0.269 -0.055,-0.156 -0.083,-0.411 -0.083,-0.767 0,-0.398 0.033,-0.673 0.098,-0.824 0.066,-0.148 0.19,-0.222 0.373,-0.222 0.194,0 0.322,0.089 0.385,0.266 0.055,0.156 0.082,0.414 0.082,0.774 0,0.402 -0.032,0.676 -0.098,0.821 C 0.293,-0.074 0.173,0 0,0 m 0.016,0.622 c 0.468,0 0.832,-0.11 1.091,-0.332 0.33,-0.284 0.495,-0.727 0.495,-1.329 0,-1.108 -0.538,-1.662 -1.614,-1.662 -1.073,0 -1.61,0.551 -1.61,1.652 0,0.607 0.165,1.053 0.495,1.339 0.259,0.222 0.64,0.332 1.143,0.332" style="fill:#ffffff;fill-opacity:1;fill-rule:nonzero;stroke:none" id="path290"/>
        </g>
        <g id="g292" transform="translate(50.0527,26.7855)">
          <path d="m 0,0 c -0.202,0 -0.334,-0.09 -0.396,-0.269 -0.055,-0.156 -0.083,-0.411 -0.083,-0.767 0,-0.398 0.033,-0.673 0.098,-0.824 0.066,-0.148 0.19,-0.222 0.373,-0.222 0.194,0 0.322,0.089 0.385,0.266 0.055,0.156 0.082,0.414 0.082,0.774 0,0.402 -0.032,0.676 -0.098,0.821 C 0.293,-0.074 0.173,0 0,0 m 0.016,0.622 c 0.468,0 0.832,-0.11 1.091,-0.332 0.33,-0.284 0.495,-0.727 0.495,-1.329 0,-1.108 -0.538,-1.662 -1.614,-1.662 -1.073,0 -1.61,0.551 -1.61,1.652 0,0.607 0.165,1.053 0.495,1.339 0.259,0.222 0.64,0.332 1.143,0.332" style="fill:#ffffff;fill-opacity:1;fill-rule:nonzero;stroke:none" id="path294"/>
        </g>
        <g id="g296" transform="translate(52.0977,27.3412)">
          <path d="m 0,0 h 1.048 v -0.436 c 0.092,0.143 0.184,0.249 0.275,0.316 0.173,0.124 0.402,0.187 0.687,0.187 0.28,0 0.494,-0.057 0.64,-0.171 0.089,-0.07 0.161,-0.18 0.216,-0.332 0.079,0.137 0.168,0.24 0.267,0.31 0.181,0.128 0.416,0.193 0.707,0.193 0.429,0 0.722,-0.116 0.879,-0.345 0.092,-0.137 0.138,-0.413 0.138,-0.827 V -3.19 H 3.75 v 1.996 c 0,0.232 -0.018,0.38 -0.051,0.446 C 3.654,-0.666 3.555,-0.625 3.4,-0.625 3.188,-0.625 3.061,-0.717 3.019,-0.9 3.001,-0.98 2.992,-1.123 2.992,-1.33 V -3.19 H 1.889 v 2.021 c -0.006,0.228 -0.019,0.363 -0.04,0.405 -0.047,0.092 -0.15,0.139 -0.31,0.139 -0.199,0 -0.327,-0.077 -0.385,-0.231 C 1.123,-0.938 1.107,-1.096 1.107,-1.33 V -3.19 H 0 Z" style="fill:#ffffff;fill-opacity:1;fill-rule:nonzero;stroke:none" id="path298"/>
        </g>
        <g id="g300" transform="translate(60.3314,26.5737)">
          <path d="m 0,0 -0.789,-0.186 c -0.05,0.124 -0.105,0.216 -0.165,0.278 -0.102,0.103 -0.241,0.155 -0.416,0.155 -0.108,0 -0.191,-0.026 -0.252,-0.076 -0.063,-0.053 -0.094,-0.121 -0.094,-0.206 0,-0.116 0.058,-0.204 0.173,-0.265 0.084,-0.044 0.247,-0.1 0.49,-0.167 0.296,-0.085 0.49,-0.148 0.582,-0.19 0.392,-0.179 0.589,-0.441 0.589,-0.786 0,-0.266 -0.106,-0.493 -0.318,-0.683 -0.275,-0.242 -0.671,-0.363 -1.186,-0.363 -0.482,0 -0.856,0.101 -1.123,0.303 -0.186,0.142 -0.306,0.357 -0.361,0.648 l 0.879,0.113 c 0.081,-0.317 0.291,-0.476 0.628,-0.476 0.15,0 0.261,0.029 0.334,0.088 0.071,0.053 0.106,0.123 0.106,0.212 0,0.111 -0.056,0.199 -0.169,0.262 -0.078,0.042 -0.234,0.093 -0.467,0.155 -0.369,0.094 -0.645,0.206 -0.828,0.335 -0.244,0.172 -0.365,0.394 -0.365,0.666 0,0.299 0.124,0.54 0.373,0.723 0.267,0.196 0.612,0.294 1.036,0.294 0.382,0 0.699,-0.093 0.95,-0.278 C -0.215,0.428 -0.084,0.242 0,0" style="fill:#ffffff;fill-opacity:1;fill-rule:nonzero;stroke:none" id="path302"/>
        </g>
        <g id="g304" transform="translate(62.7218,27.1474)">
          <path d="m 0,0 c 0.233,0 0.435,-0.082 0.606,-0.247 0.172,-0.165 0.259,-0.364 0.259,-0.598 0,-0.232 -0.086,-0.432 -0.256,-0.598 -0.171,-0.165 -0.378,-0.248 -0.621,-0.248 -0.239,0 -0.444,0.082 -0.615,0.245 -0.175,0.166 -0.262,0.367 -0.262,0.601 0,0.238 0.086,0.438 0.259,0.601 C -0.453,-0.081 -0.243,0 0,0" style="fill:#ffffff;fill-opacity:1;fill-rule:nonzero;stroke:none" id="path306"/>
        </g>
        <g id="g308" transform="translate(64.9998,28.4626)">
          <path d="M 0,0 H 1.178 V -1.74 H 2.466 V 0 H 3.644 V -4.311 H 2.466 v 1.762 H 1.178 V -4.311 H 0 Z" style="fill:#ffffff;fill-opacity:1;fill-rule:nonzero;stroke:none" id="path310"/>
        </g>
        <g id="g312" transform="translate(70.8061,26.7855)">
          <path d="m 0,0 c -0.201,0 -0.334,-0.09 -0.396,-0.269 -0.056,-0.156 -0.083,-0.411 -0.083,-0.767 0,-0.398 0.033,-0.673 0.098,-0.824 0.066,-0.148 0.19,-0.222 0.373,-0.222 0.194,0 0.322,0.089 0.385,0.266 0.055,0.156 0.082,0.414 0.082,0.774 0,0.402 -0.032,0.676 -0.098,0.821 C 0.293,-0.074 0.173,0 0,0 m 0.016,0.622 c 0.468,0 0.832,-0.11 1.091,-0.332 0.33,-0.284 0.495,-0.727 0.495,-1.329 0,-1.108 -0.538,-1.662 -1.614,-1.662 -1.073,0 -1.61,0.551 -1.61,1.652 0,0.607 0.165,1.053 0.495,1.339 0.259,0.222 0.64,0.332 1.143,0.332" style="fill:#ffffff;fill-opacity:1;fill-rule:nonzero;stroke:none" id="path314"/>
        </g>
        <g id="g316" transform="translate(72.8509,27.3412)">
          <path d="m 0,0 h 1.048 v -0.436 c 0.092,0.143 0.184,0.249 0.275,0.316 0.173,0.124 0.402,0.187 0.687,0.187 0.28,0 0.494,-0.057 0.64,-0.171 0.089,-0.07 0.161,-0.18 0.216,-0.332 0.079,0.137 0.168,0.24 0.267,0.31 0.181,0.128 0.416,0.193 0.707,0.193 0.429,0 0.722,-0.116 0.879,-0.345 0.092,-0.137 0.138,-0.413 0.138,-0.827 V -3.19 H 3.75 v 1.996 c 0,0.232 -0.017,0.38 -0.051,0.446 C 3.654,-0.666 3.555,-0.625 3.4,-0.625 3.188,-0.625 3.061,-0.717 3.019,-0.9 3.001,-0.98 2.992,-1.123 2.992,-1.33 V -3.19 H 1.889 v 2.021 c -0.006,0.228 -0.019,0.363 -0.04,0.405 -0.047,0.092 -0.15,0.139 -0.31,0.139 -0.199,0 -0.327,-0.077 -0.385,-0.231 C 1.123,-0.938 1.107,-1.096 1.107,-1.33 V -3.19 H 0 Z" style="fill:#ffffff;fill-opacity:1;fill-rule:nonzero;stroke:none" id="path318"/>
        </g>
        <g id="g320" transform="translate(80.2748,26.1127)">
          <path d="m 0,0 c 0.002,0.04 0.004,0.069 0.004,0.088 0,0.202 -0.045,0.356 -0.134,0.461 -0.089,0.106 -0.217,0.159 -0.385,0.159 -0.232,0 -0.387,-0.109 -0.463,-0.326 C -1.007,0.291 -1.024,0.164 -1.029,0 Z m 1.044,-0.515 h -2.081 v -0.171 c 0,-0.25 0.04,-0.431 0.118,-0.543 0.084,-0.122 0.222,-0.183 0.416,-0.183 0.183,0 0.321,0.053 0.413,0.158 0.07,0.08 0.12,0.21 0.149,0.389 L 1.044,-0.916 C 0.995,-1.11 0.938,-1.258 0.876,-1.361 0.606,-1.806 0.137,-2.028 -0.53,-2.028 c -0.477,0 -0.851,0.115 -1.123,0.344 -0.351,0.293 -0.526,0.716 -0.526,1.27 0,0.588 0.169,1.031 0.506,1.33 0.286,0.253 0.665,0.379 1.139,0.379 0.369,0 0.687,-0.087 0.954,-0.259 0.327,-0.211 0.526,-0.548 0.597,-1.011 0.015,-0.114 0.024,-0.294 0.027,-0.54" style="fill:#ffffff;fill-opacity:1;fill-rule:nonzero;stroke:none" id="path322"/>
        </g>
        <g id="g324" transform="translate(83.5652,28.4626)">
          <path d="M 0,0 H 3.259 V -0.742 H 1.178 V -1.74 H 2.796 V -2.483 H 1.178 v -1.058 h 2.081 v -0.77 H 0 Z" style="fill:#ffffff;fill-opacity:1;fill-rule:nonzero;stroke:none" id="path326"/>
        </g>
        <g id="g328" transform="translate(87.2533,27.3412)">
          <path d="M 0,0 H 1.201 L 1.622,-0.739 2.132,0 H 3.094 L 2.069,-1.405 3.251,-3.19 H 2.054 L 1.472,-2.236 0.809,-3.19 h -0.962 l 1.174,1.633 z" style="fill:#ffffff;fill-opacity:1;fill-rule:nonzero;stroke:none" id="path330"/>
        </g>
        <g id="g332" transform="translate(91.356,28.2793)">
          <path d="m 0,0 0.927,0.07 v -1.008 h 0.73 v -0.698 h -0.73 v -1.172 c 0,-0.242 0.008,-0.388 0.023,-0.439 0.027,-0.076 0.075,-0.13 0.146,-0.164 0.068,-0.032 0.174,-0.048 0.317,-0.048 0.061,0 0.16,0.004 0.299,0.01 V -4.128 C 1.455,-4.172 1.232,-4.194 1.04,-4.194 c -0.489,0 -0.825,0.117 -1.009,0.353 -0.089,0.112 -0.143,0.252 -0.164,0.42 -0.011,0.074 -0.016,0.246 -0.016,0.515 v 1.27 h -0.44 v 0.698 h 0.499 z" style="fill:#ffffff;fill-opacity:1;fill-rule:nonzero;stroke:none" id="path334"/>
        </g>
        <g id="g336" transform="translate(95.5143,26.1127)">
          <path d="m 0,0 c 0.002,0.04 0.004,0.069 0.004,0.088 0,0.202 -0.045,0.356 -0.134,0.461 -0.089,0.106 -0.217,0.159 -0.385,0.159 -0.232,0 -0.387,-0.109 -0.463,-0.326 C -1.007,0.291 -1.024,0.164 -1.029,0 Z m 1.044,-0.515 h -2.081 v -0.171 c 0,-0.25 0.04,-0.431 0.118,-0.543 0.084,-0.122 0.222,-0.183 0.416,-0.183 0.183,0 0.321,0.053 0.413,0.158 0.07,0.08 0.12,0.21 0.149,0.389 L 1.044,-0.916 C 0.995,-1.11 0.938,-1.258 0.876,-1.361 0.606,-1.806 0.137,-2.028 -0.53,-2.028 c -0.477,0 -0.851,0.115 -1.123,0.344 -0.351,0.293 -0.526,0.716 -0.526,1.27 0,0.588 0.169,1.031 0.506,1.33 0.286,0.253 0.665,0.379 1.139,0.379 0.369,0 0.687,-0.087 0.954,-0.259 0.327,-0.211 0.526,-0.548 0.597,-1.011 0.015,-0.114 0.024,-0.294 0.027,-0.54" style="fill:#ffffff;fill-opacity:1;fill-rule:nonzero;stroke:none" id="path338"/>
        </g>
        <g id="g340" transform="translate(97.2025,27.3412)">
          <path d="m 0,0 h 0.974 v -0.77 c 0.099,0.273 0.213,0.469 0.341,0.587 0.162,0.152 0.361,0.227 0.597,0.227 0.05,0 0.112,-0.006 0.189,-0.019 V -0.84 c -0.082,0.006 -0.143,0.009 -0.185,0.009 -0.217,0 -0.39,-0.052 -0.518,-0.158 C 1.272,-1.092 1.187,-1.233 1.143,-1.412 1.119,-1.502 1.107,-1.637 1.107,-1.816 V -3.19 H 0 Z" style="fill:#ffffff;fill-opacity:1;fill-rule:nonzero;stroke:none" id="path342"/>
        </g>
        <path d="m 99.715,27.341 h 1.107 v -3.19 h -1.107 z m 1.115,0.262 h -1.123 v 0.881 h 1.123 z" style="fill:#ffffff;fill-opacity:1;fill-rule:nonzero;stroke:none" id="path344"/>
        <g id="g346" transform="translate(103.0843,26.7855)">
          <path d="m 0,0 c -0.201,0 -0.334,-0.09 -0.396,-0.269 -0.056,-0.156 -0.083,-0.411 -0.083,-0.767 0,-0.398 0.033,-0.673 0.098,-0.824 0.066,-0.148 0.19,-0.222 0.373,-0.222 0.194,0 0.322,0.089 0.385,0.266 0.055,0.156 0.082,0.414 0.082,0.774 0,0.402 -0.032,0.676 -0.098,0.821 C 0.293,-0.074 0.173,0 0,0 m 0.016,0.622 c 0.468,0 0.832,-0.11 1.091,-0.332 0.33,-0.284 0.495,-0.727 0.495,-1.329 0,-1.108 -0.538,-1.662 -1.614,-1.662 -1.073,0 -1.61,0.551 -1.61,1.652 0,0.607 0.165,1.053 0.495,1.339 0.259,0.222 0.64,0.332 1.143,0.332" style="fill:#ffffff;fill-opacity:1;fill-rule:nonzero;stroke:none" id="path348"/>
        </g>
        <g id="g350" transform="translate(105.1292,27.3412)">
          <path d="m 0,0 h 0.974 v -0.77 c 0.099,0.273 0.213,0.469 0.341,0.587 0.162,0.152 0.361,0.227 0.597,0.227 0.05,0 0.112,-0.006 0.189,-0.019 V -0.84 c -0.082,0.006 -0.143,0.009 -0.185,0.009 -0.217,0 -0.39,-0.052 -0.518,-0.158 C 1.272,-1.092 1.187,-1.233 1.143,-1.412 1.119,-1.502 1.107,-1.637 1.107,-1.816 V -3.19 H 0 Z" style="fill:#ffffff;fill-opacity:1;fill-rule:nonzero;stroke:none" id="path352"/>
        </g>
        <g id="g354" transform="translate(110.167,26.5737)">
          <path d="m 0,0 -0.789,-0.186 c -0.05,0.124 -0.105,0.216 -0.165,0.278 -0.102,0.103 -0.241,0.155 -0.416,0.155 -0.108,0 -0.191,-0.026 -0.252,-0.076 -0.063,-0.053 -0.094,-0.121 -0.094,-0.206 0,-0.116 0.058,-0.204 0.173,-0.265 0.084,-0.044 0.247,-0.1 0.49,-0.167 0.296,-0.085 0.49,-0.148 0.582,-0.19 0.392,-0.179 0.589,-0.441 0.589,-0.786 0,-0.266 -0.106,-0.493 -0.318,-0.683 -0.275,-0.242 -0.671,-0.363 -1.186,-0.363 -0.482,0 -0.856,0.101 -1.123,0.303 -0.186,0.142 -0.306,0.357 -0.361,0.648 l 0.879,0.113 c 0.081,-0.317 0.291,-0.476 0.628,-0.476 0.15,0 0.261,0.029 0.334,0.088 0.071,0.053 0.106,0.123 0.106,0.212 0,0.111 -0.056,0.199 -0.169,0.262 -0.078,0.042 -0.234,0.093 -0.467,0.155 -0.369,0.094 -0.645,0.206 -0.828,0.335 -0.244,0.172 -0.365,0.394 -0.365,0.666 0,0.299 0.124,0.54 0.373,0.723 0.267,0.196 0.612,0.294 1.036,0.294 0.382,0 0.699,-0.093 0.95,-0.278 C -0.215,0.428 -0.084,0.242 0,0" style="fill:#ffffff;fill-opacity:1;fill-rule:nonzero;stroke:none" id="path356"/>
        </g>
      </g>
    </g>
  </g>
</svg>
