<svg width="497" height="195" viewBox="0 0 497 195" fill="none" xmlns="http://www.w3.org/2000/svg">
<path fill-rule="evenodd" clip-rule="evenodd" d="M102.5 42.4002L140.1 42.2002L163 81.8002L187.1 42.2002H225.4L247.6 82.1002L228.1 114.4L205.3 77.3002L183.3 116.3L143.6 116.4L102.5 42.4002Z" fill="white"/>
<path d="M276.1 41.3H313.2L337.8 83.8L388.6 0H427.7L356 116.5H317.5L294.5 75.4L270.7 116.6H231.3L276.1 41.3Z" fill="white"/>
<path d="M66.4 147.9L54.3 194.4H40.6L33.2 163.8L25.5 194.4H11.8L0 147.9H12.1L18.8 181.8L27.1 147.9H39.6L47.6 181.8L54.4 147.9H66.6H66.4Z" fill="white"/>
<path d="M331.6 194.4H320.3L301.3 165.7V194.4H290V147.9H301.3L320.3 176.7V147.9H331.6V194.4Z" fill="white"/>
<path d="M78.3001 156.7V194.4H69.1001V156.7H78.3001Z" fill="white"/>
<path d="M118.7 194.4H109.5L94.0999 171.1V194.4H84.8999V156.7H94.0999L109.5 180.1V156.7H118.7V194.4Z" fill="white"/>
<path d="M149.9 159.1C152.9 160.7 155.2 162.9 156.8 165.7C158.4 168.5 159.2 171.8 159.2 175.6C159.2 179.4 158.4 182.6 156.8 185.4C155.2 188.3 152.9 190.5 149.9 192.1C146.9 193.7 143.4 194.5 139.5 194.5H125.4V156.8H139.5C143.5 156.8 147 157.6 149.9 159.2V159.1ZM147 183.6C148.9 181.7 149.9 179 149.9 175.5C149.9 172 148.9 169.3 147 167.4C145.1 165.5 142.4 164.5 138.9 164.5H134.5V186.4H138.9C142.4 186.4 145.1 185.5 147 183.6Z" fill="white"/>
<path d="M172.5 192.4C169.5 190.8 167.2 188.4 165.5 185.5C163.8 182.5 162.9 179.2 162.9 175.5C162.9 171.8 163.8 168.5 165.5 165.6C167.2 162.7 169.6 160.4 172.5 158.7C175.5 157.1 178.7 156.2 182.3 156.2C185.9 156.2 189.1 157 192.1 158.7C195.1 160.3 197.4 162.6 199.1 165.6C200.8 168.5 201.7 171.9 201.7 175.5C201.7 179.1 200.8 182.5 199.1 185.5C197.4 188.5 195 190.8 192.1 192.4C189.2 194 185.9 194.9 182.4 194.9C178.9 194.9 175.6 194.1 172.6 192.4H172.5ZM189.5 183.4C191.3 181.4 192.2 178.7 192.2 175.4C192.2 172.1 191.3 169.4 189.5 167.4C187.7 165.4 185.3 164.4 182.3 164.4C179.3 164.4 176.8 165.4 175 167.4C173.2 169.4 172.3 172 172.3 175.4C172.3 178.8 173.2 181.4 175 183.4C176.8 185.4 179.2 186.4 182.3 186.4C185.4 186.4 187.7 185.4 189.5 183.4Z" fill="white"/>
<path d="M258.6 156.7L248.8 194.4H237.7L231.7 169.6L225.5 194.4H214.4L204.8 156.7H214.6L220 184.2L226.7 156.7H236.8L243.3 184.2L248.8 156.7H258.7H258.6Z" fill="white"/>
<path d="M363 187.8H348.9L346.6 194.5H337L350.7 156.8H361.3L375 194.5H365.3L363 187.8ZM360.6 180.7L355.9 166.9L351.3 180.7H360.6Z" fill="white"/>
<path d="M401.4 156.7V164.1H391.4V194.5H382.2V164.1H372.2V156.7H401.4Z" fill="white"/>
<path d="M414 156.7V194.4H404.8V156.7H414Z" fill="white"/>
<path d="M428.7 192.4C425.7 190.8 423.4 188.4 421.7 185.5C420 182.5 419.1 179.2 419.1 175.5C419.1 171.8 420 168.5 421.7 165.6C423.4 162.7 425.8 160.4 428.7 158.7C431.7 157.1 434.9 156.2 438.5 156.2C442.1 156.2 445.3 157 448.3 158.7C451.3 160.3 453.6 162.6 455.3 165.6C457 168.5 457.9 171.9 457.9 175.5C457.9 179.1 457 182.5 455.3 185.5C453.6 188.5 451.2 190.8 448.3 192.4C445.4 194 442.1 194.9 438.6 194.9C435.1 194.9 431.8 194.1 428.8 192.4H428.7ZM445.6 183.4C447.4 181.4 448.3 178.7 448.3 175.4C448.3 172.1 447.4 169.4 445.6 167.4C443.8 165.4 441.4 164.4 438.4 164.4C435.4 164.4 432.9 165.4 431.1 167.4C429.3 169.4 428.4 172 428.4 175.4C428.4 178.8 429.3 181.4 431.1 183.4C432.9 185.4 435.3 186.4 438.4 186.4C441.5 186.4 443.8 185.4 445.6 183.4Z" fill="white"/>
<path d="M496.4 194.4H487.2L471.8 171.1V194.4H462.6V156.7H471.8L487.2 180.1V156.7H496.4V194.4Z" fill="white"/>
</svg>
